<?xml version="1.0" encoding="utf-8"?>
<!-- Generator: Adobe Illustrator 21.0.0, SVG Export Plug-In . SVG Version: 6.00 Build 0)  -->
<svg version="1.1" id="Layer_1" xmlns="http://www.w3.org/2000/svg" xmlns:xlink="http://www.w3.org/1999/xlink" x="0px" y="0px"
	 viewBox="0 0 992.1 992.1" style="enable-background:new 0 0 992.1 992.1;" xml:space="preserve">
<style type="text/css">
	.st0{fill:#FFFFFF;}
	.st1{fill:#FFDE17;}
	.st2{fill:#ED1C24;}
	.st3{fill:#8B5E3C;}
</style>
<g>
	<path class="st0" d="M632,694.6c-20.9,55.8-74.7,95.5-137.8,95.5c-62.3,0-115.6-38.7-137-93.4c19.4,12.4,47.6,24.6,87.4,30.3
		c5,19.5,25.3,34.1,49.6,34.1c24.3,0,44.7-14.7,49.6-34.2C584.3,720.8,612.7,707.8,632,694.6z M451,717.7
		c0-19.7,19.4-35.8,43.2-35.8s43.2,16.1,43.2,35.8s-19.4,35.8-43.2,35.8S451,737.4,451,717.7z M494.2,742.4
		c15.8,0,28.6-11.1,28.6-24.7S510,693,494.2,693s-28.6,11.1-28.6,24.7S478.4,742.4,494.2,742.4z M515.2,717.7
		c0-9.4-9.4-17.1-21-17.1s-21,7.7-21,17.1s9.4,17.1,21,17.1S515.2,727.1,515.2,717.7z M568.1,298.9c1.4-5.1-2.1-12.1-7.9-12.2
		c-6.9,0.1-10.4,9.7-5.7,14.5C558.4,305.4,566.3,304.9,568.1,298.9z M426.4,292.5c-1.2,5.2,1.9,12.4,7.9,12.3
		c7-0.1,10.4-9.9,5.6-14.7C436,285.8,428,286.2,426.4,292.5z"/>
	<path class="st1" d="M779.3,190.1c0.1,0.5,0,1.1-0.1,1.6c-2.1,15.3-4.9,37.4-7.3,52.5c-2.1,12.5-5.6,26.4-8.5,38.8
		c-0.7,3.2-2.4,9.7-3.1,12.9l-0.8,3.2l-0.4,1.6c-0.1,0.5-0.2,1-0.4,1.5c-0.7,1.9-2.2,3.2-4.1,3.7l-6.4,1.5
		c-31.2,7.3-62.1,15.9-92.8,25.2c-2.4,0.8-6.5,2-4.7,5.4c1.9,3,4.6,5,6.8,7.5c15.1,16.1,28.5,33.8,44.4,49.2
		c0.7,0.7,2.9,2.8,3.5,3.5c0.4,0.4,0.7,0.8,0.8,1.1c0,0.2,0.1,0.2-0.1,0.3c-0.5,0.5-1.3,0.8-2,1.1c-13.5,6.2-37.8,17.1-51.3,23.2
		l-6,2.7c-2.1,0.9-3.9,2.2-5.9,3.1c-1,0.4-2,0.7-3.1,0.7c-0.3,0-0.7,0.1-1.1,0.4c-0.3,0.3-0.4,0.8-0.4,1.2c0.4,1.8,1.9,2.9,2.9,4.3
		c0.6,0.8,1.3,1.6,1,2.5c-0.1,0.3-0.4,0.7-0.7,0.8c-0.4,0.1-1.2-0.9-1.7-1.1c-1.4-0.9-6.1-4.2-7.5-5.1c-1-0.8-2.5-1.6-3.7-0.5
		c-0.6,0.4-0.9,1.4-0.8,2c0.1,0.7,0.4,1.2,0.5,1.7c0,0,0.9,2.6,1.6,4.4c-1.2-0.8-2.5-1.6-2.5-1.6l-2.1-1.3c-0.8-0.5-1.9-1.3-2.9-0.8
		c-0.6,0.3-1,0.7-1.2,1.4c-0.2,0.7,0,1.3,0.2,1.7l1.1,2.2c0,0,1.1,2.1,1.7,3.3c-0.7,0.1-1.5,0.1-2.3,0.3c-1.1,0.2-2.3,0.8-3.1,1.7
		c0,0-0.1-0.1-0.1-0.2c0-0.1-0.1-0.2-0.1-0.3l-0.1-0.4c-3.1-8-5.9-16.1-8-24.4c-0.2-0.8-0.4-1.3,0.5-1.8c-0.1,0,12.6-7.5,12.8-7.6
		c3.8-2.3,13.5-8,17.2-10.2c1.5-1,3.9-2,5.2-3.5c2.3-3.1-2.6-5.3-4.6-7c-5.3-3.7-11.5-7.2-17.2-10.4l-2.9-1.6c-1.6-0.9-1.6-1-1-2.2
		c11-18.3,5.2-38.5-0.4-57.5c-1.1-4.2-2.6-8.3-2.7-12.7c-0.1-3.1,0.2-6.7,0.2-9.9c0.1-5.6,0.1-11.2-0.2-16.8
		c-0.5-7.8-1.7-15.7-4.1-23.2c-0.4-1.4-1-2.8-0.8-4.1c0.1-0.4,0.7-0.8,1.1-1c1.5-0.9,6.5-3.1,8.1-3.9
		c48.2-22.5,96.8-45.4,148.6-58.3c2.2-0.5,4.3-1,6.5-1.5c1-0.2,2.2-0.5,3.2-0.3C779,189,779.3,189.5,779.3,190.1z M614.5,448.1
		c6.4,15.7,15.1,30.3,23.5,45c6,10.3,7.1,22.6,6.4,34.3c0.2,2.7-1.4,3.4-3.2,4.8c-2.3,1.6-4.5,3.3-6.7,5c-3.3,2.6-6.5,5.3-9.4,8.2
		l-0.7,0.7c-0.8,0.7-2,1.4-1.6,2.7c0.3,0.1,0.6,0.2,1,0.1c0.3-0.1,0.5-0.3,0.7-0.5c0.3-0.4,0.8-0.7,1.2-1l2.5-1.9
		c11.5-9,23-18.5,36-25.2c0.9-0.4,1.9-0.8,2.9-0.9c2.5,0.1,2.7,2.6,1.8,4.5c-0.4,0.9-1.1,1.8-1.6,2.6c-2.4,3.4-4.8,6.9-7.6,10
		c-1.4,1.6-2.8,3.1-4.4,4.5c-1,0.9-2.1,1.7-2.8,2.9c-0.1,0.3,0,0.7,0.2,1c0.2,0.2,0.5,0.4,0.9,0.4c0.3-0.1,0.6-0.3,0.8-0.4
		c1.6-1.4,3.2-2.7,4.7-4.2c2.9-3,5.4-6.5,7.9-9.8c2-2.4,3.7-5.3,4.2-8.5c0.3-1.9,1.8-1.9,3.4-1.7c0.6,0,1,0,1.4,0.3
		c0.4,0.2,0.5,0.7,0.6,1.1c0.2,2.6-0.8,5.1-2.3,7.2c-5.3,7.5-11.3,14.5-17.4,21.2c-0.4,0.5-1.2,0.8-1.4,1.6
		c-0.2,0.9,0.9,1.9,1.7,1.5c7.6-7.4,14.2-15.7,19.9-24.5l0.9-1.3c0.2-0.3,0.3-0.8,0.7-0.8c0.4,0.1,0.6,0.2,0.6,0.7
		c0,0.4,0,1-0.1,1.5c-0.3,2-1.1,3.9-2.1,5.8c-2.9,5.6-7.2,10.2-11.2,15c-10.9,12.7-21.7,25.7-34.5,36.5
		c-6.3,5.4-13.1,10.4-20.5,14.2c-3.7,1.8-7.4,3.8-11.5,4.2c-3.5,0.2-8.8,0.1-10-4c-0.5-1.9,0.3-3.9,0.8-5.8c0.6-2,1.4-3.9,2.2-5.8
		c0.2-0.4,0.5-0.9,0.4-1.5c0-0.3-0.1-0.6-0.3-0.8c-0.5-0.5-1.1-0.7-1.8-0.6c-0.6,0.1-1.1,0.8-1.2,1.3c-1,3-2.7,5.8-3.1,9
		c-0.1,0.5-0.2,1.5-0.6,1.8c-0.4,0.5-1.4,0.7-2.4,0.7c-2,0.1-4.1-0.1-6.1-0.5c-4.2-0.8-7.6-3-11.6-4.6c-0.5-0.2-0.9-0.3-1.2-0.6
		c-0.3-0.2-0.3-0.2-0.2-0.6c0.1-0.3,0.3-0.7,0.6-1.1l1-1.2c3.9-5,7.6-10.2,10.9-15.6c8.7-14.4,16.7-29.3,23-44.9
		c4.3-11.3,8.8-22.8,10.3-34.9c0-0.2,0.1-0.4,0.1-0.7c0-0.3,0.1-0.6,0-1.2c-0.2-1.2-1.8-1.8-2.9-1.1c-0.7,0.5-0.9,1.4-0.9,2.2
		c-0.1,1-0.3,2-0.5,3.1c-3.1,18.6-11.3,35.8-19.4,52.7c-7.7,15.4-16.6,30.3-27.4,43.7c-2,2.4-3.1,5.5-3.1,8.6c0,0.2,0,0.5-0.1,0.7
		c0,0.3-0.1,0.5-0.2,0.6c0,0,0,0,0,0c-0.4-0.1-0.6-0.2-1-0.4l-0.7-0.4c-0.5-0.3-1.1-0.6-1.8-0.7c-0.7-0.1-1.6,0-2.2,0.3
		c-2.7,1.8-2.4,2.2-3.7,0.6c-0.6-1-1.2-1.9-2.2-2.8c-3.7-2.6-6.4,3-8.5,0.7c-0.6-0.8-1.4-2-2.5-2.5c-2.3-1.2-4.5-0.1-6.8,0.2
		c-0.4,0-0.8,0-1-0.1c-0.2-0.1-0.4-0.3-0.7-0.6c-0.2-0.3-0.5-0.8-0.7-1.2l-0.7-1.4c-0.5-1.2-1.7-2.1-2.8-2.6
		c-1.4-0.7-3.1-1.1-3.9-2.1c0-0.3,0.2-0.7,0.6-1.2c0.3-0.4,0.6-0.7,0.9-1.1c5.7-6.2,2.5-14.9,1.2-22.1c-7.3-35,1.6-75.7,12.8-109.2
		c0.3-0.7,0.1-1.9-0.4-2.5l-1-1.5c-2.9,4.5-4.4,9.8-6.2,14.6c-10.9,31.9-16.4,72-8.6,105c0.8,2.9,1,5.8,0.8,8.8
		c-0.1,0.6-0.3,1.1-0.6,1.3c-0.3,0.2-0.9,0.2-1.6,0.1c-1.5-0.2-3.1-0.4-4.6-0.5c-8.5-0.8-17.1-0.7-25.5,0.7
		c-0.4,0.1-0.6,0.1-0.9,0.1c-0.3,0-0.3-0.1-0.3-0.1c0-0.1-0.1-0.3-0.1-0.6c0-0.3,0-0.6,0.1-1l0.3-2.3c1-7.1,2.4-15.7,3.4-22.8
		c1.2-9.2,1.3-18.5,1-27.8c-0.5-12.3-1.7-24.6-3.6-36.8c-1.8-11-4-22.1-8.4-32.5c-0.4-0.8-0.4-1.5-1.1-2.3c-0.4-0.4-0.9-0.7-1.4-0.7
		l-0.9-0.2l0,0.9c0.1,2.1,0.8,4.1,1.4,6c1.6,5.8,3.1,11.6,4.3,17.5c4.8,23.5,7,47.7,5,71.6c-0.6,8-1.8,15.9-3.1,23.8
		c-0.8,4.9-1.2,10.1-0.4,15.1c0,0.4,0,0.8-0.2,1.1c-0.3,0.4-1.1,0.4-1.6,0.2c-1.9-0.5-4.1,0.4-5,2.1c-1,2-1.5,3.2-3.7,1.4
		c-2.2-1.9-4-1.8-5.6,0.8c-0.8,1.3-1.3,2.6-2.3,3.8c-0.3,0.3-0.5,0.4-0.9,0.2c-0.4-0.1-0.8-0.4-1.1-0.7c-1.3-0.9-2.2-2.3-4.1-2.3
		c-1.2,0.1-2,1-2.8,1.8c-1,1-2,2.1-3.2,2.9c-0.8,0.5-1.5-0.1-2.1-0.6c-2-2.3-3.8-3.4-7-2.5c0,0-3.8,0.8-5.1,1
		c0.3-0.8,0.5-1.7,0.6-2.5c0.4-3.7-2.5-6.5-5.2-8.5c-3.6-2.6-6.5-5.9-9.2-9.4c-14.4-19.5-27.2-41-31.7-65.1
		c-0.3-1.3-0.7-3.6-1.1-4.9c-0.3-0.8-0.9-1.5-1.4-2.2c-0.4,1.9-0.7,3.9-0.6,5.9c0.3,5,1.8,9.9,3.2,14.7c2,6.4,4.4,12.6,7.3,18.6
		c6.6,13.4,14.5,26.3,24.2,37.7c2.2,2.5,4.5,5,7.1,7.1c0.6,0.6,1.6,1,2,1.7c-0.2,0.2-0.8,0.4-1.3,0.4c-8.1,1.8-16.4,3-24.5,1.6
		c-0.8-0.1-1.6-0.3-2.1-0.8c-1.2-1.1-0.4-2.8-0.4-4.3c0.1-2.5-0.5-5.1-1.1-7.5l-0.3-1.2c-0.1-0.5-0.2-1-0.7-1.4
		c-0.3-0.2-0.7-0.2-1-0.2c-0.2,0.1-0.6,0.1-0.8,0.4c-0.3,0.3-0.3,0.7-0.3,0.9c0.3,1.8,0.6,3.7,0.9,5.6c0.3,1.6,0.5,3.2,0.2,4.8
		c-0.4,3.2-2.6,5.9-5.1,7.9c-0.6,0.5-1.3,0.8-2,0.9c-4,0.4-8.2-0.2-12-1.6c-3.1-1.2-5.8-3-8.2-5.2c-7.6-6.5-14.4-13.7-21.1-21
		c-8.9-9.8-17.8-19.7-25.7-30.4c-1.9-2.6-3.9-5.4-5.6-8.2c-1.7-3.2-2.5-6.9-2.6-10.5l0-0.6c0-0.2,0-0.5,0-0.6c0-0.4,0-0.8,0.1-0.9
		c0.1-0.2,0.3-0.2,0.6-0.2c0.1,0,0.2,0,0.2,0c0,0,0.1,0.1,0.1,0.2c1,4.4,3.6,8.6,6.2,12.3c2.8,4,6.4,7.9,9.7,11.5l0.4,0.5
		c0.2,0.2,0.3,0.4,0.6,0.5c0.3,0.2,0.9,0.2,1.2,0c0.3-0.2,0.5-0.3,0.7-0.6c0.7-1-0.5-2.1-1.1-2.8c-1.9-2.7-4.4-5-6.5-7.6
		c-3.5-4.4-6.5-9.5-8.3-14.8c-0.2-0.8,0-1.6,0-2.4c0-0.8,0-1.6,0.4-1.9c1.6-1.5,4.1-0.4,4.9,1.6c2.2,6.3,5.8,12.1,10,17.3
		c2.4,2.9,5,5.6,7.6,8.3c0.3,0.2,0.7,1,1.2,1.3c0.2,0.1,0.5,0.2,0.7,0.1c0.5-0.1,0.8-0.4,1-0.6c0.2-0.3,0.4-0.8,0.3-1.2
		c-0.1-0.4-0.2-0.7-0.4-0.9c-3.3-3.7-6.5-7.6-9.3-11.7c-2.8-4-5.7-8.1-7.7-12.5c-0.8-2-0.6-4.6,1.3-5.5c2.2-0.8,4.2,0.8,6.2,1.8
		c9.9,5.9,18.7,13.7,27.1,21.5c1,0.9,1.7,1.6,2.7,2.6c0.4,0.5,1.4,0.9,2.1,0.5c0.5-0.3,1-0.7,1.1-1.3c0.3-1.5-1.2-2.1-2-2.9
		c-4.1-3.6-7.7-7.6-12-10.9l-1-0.8c-0.5-0.4-0.9-0.9-0.9-1.4c0-0.1,0-0.3,0-0.4l0.1-0.6c0.9-11.4,2.3-23.1,7.4-33.5
		c2.9-5.8,7.1-11,10.6-16.7c10.5-16.8,21.8-34.1,25.8-53.9c1.3-5.8,1.7-11.8,2-17.8c13.3,10.8,28.1,19.6,43.7,26.6l1.1-2
		c-14.5-9-29.8-17.1-42.3-28.8c8.2-2.2,15.1-7.7,19.2-15.2c3.8-6.4,4.9-14.4,2.9-21.6c-1.6-6-5-11.5-9.1-16.2
		c-7.8-8.7-20.1-13.1-31.2-8c-1.3,0.5-2.5,1.1-3.8,1.7c0.7-3.9,1.4-7.8,2.3-11.5c0.5-2,1.3-5.1,1.7-7c3.2-14.2,3.5-28.9,2.3-43.3
		c-0.4-11.5,4.9-23.3,11.5-32.5c2.1-2.8,4.5-5.4,7.1-7.8c1-0.9,2.1-1.9,2.6-3.3l0.4-1c-1-0.8-2-1.6-3.5-0.9
		c-0.3,0.2-0.5,0.3-0.6,0.5c-0.3,0.3-0.3,0.3-0.6,0.5l-0.7,0.6c-2.3,2-4.7,4-6.5,6.4c-0.5,0.6-1.2,1.6-1.9,1.8
		c-1.3,0.3-2.7-0.9-3.9-1.6c-2-1.2-4.1-2.4-6.1-3.7c-20.1-12.5-38.8-27.2-55.8-43.6l-2.6-2.5c-0.9-0.8-1.6-1.6-2.1-2.4
		c-6.5-20.1-13.9-40.2-15.4-61.4c-0.3-3.8-0.4-8.1-0.4-11.7c12.7,5.4,24.8,12.2,36.2,19.9c30.2,20.5,56.1,47.8,74.2,79.6
		c1.1,1.7,2.1,4.6,4.5,4.6c2.3-0.2,3.7-1.4,5.6-2.2c2.1-1.1,4.2-2.2,6.3-3.2c8.4-4.1,17.2-7.7,26.4-9.6c13.8-2.8,28.1-3.8,42.2-3.4
		c9.4,0.3,18.9,0.9,28.1,2.6c10.5,1.8,20.2,6.1,29.7,11c0.6,0.2,1.4,0.5,2.3,0.4c1.7-0.1,2.8-1.2,3.8-2.2c1.1-1.2,2.5-2.7,3.6-4
		c7.2-7.9,14.4-15.7,22.3-22.8c6.2-5.5,13.3-9.7,20-14.7c10.9-8.1,23-18,35-24.1c10.9-5.8,22.7-10.2,34.2-14.9c0,0,0.5-0.2,0.7-0.3
		c-1.7,19.3-5.7,38.5-12.2,56.8c-0.7,2.3-1.2,4.5-2.3,6.6c-3.2,6.3-9.5,10-15,14.2c-11.5,8.3-23.4,16.1-35.9,22.9
		c-4.2,2.3-8.4,4.5-12.6,6.5c-1.7,0.7-4.3,2.4-6,1.9c-0.7-0.3-1.4-1.3-2-2.2c-0.4-0.6-0.8-1.5-1.5-2c-0.2-0.1-0.5-0.3-0.8-0.3
		c-0.4-0.1-0.7,0.1-1,0.2c-0.5,0.3-0.9,0.8-0.9,1.4c0,0.4,0.1,0.6,0.2,0.8c0.2,0.4,0.4,0.7,0.7,0.9c0.2,0.2,0.4,0.4,0.5,0.6
		c0,0,0.1,0.2,0.2,0.3l0.2,0.4c4.3,6.8,9.9,13.6,12.4,21.3c4.5,13.5,4.2,28,4.2,42.1c0,4.4-0.2,9.9,0.6,14.3
		c0.8,4.8,2.3,9.3,3.7,13.8c1.5,4.2,2.4,8.6,2.9,13c-0.1-0.1-0.3-0.2-0.5-0.4c-3.5-2.2-7.5-3.8-11.7-4.1c-6.3-0.6-12.2,2.5-17.4,5.7
		c-2.7,1.8-5.3,3.8-7.5,6.1c-11.2,11.3-15,34.1,0.8,43.1c4.6,2.7,10.1,3.5,15.4,2.9c1.2-0.1,2.3-0.3,3.5-0.6c0.4-0.1,0.7-0.2,1-0.1
		c-3.2,4.4-6.9,8.4-11,12c-12.6,11.3-28.4,18.1-44,24.3l0.2,0.5c15.2-4.1,30.1-10.3,42.7-20c4.1-3.2,7.9-6.7,11.4-10.5
		c0.4,0.9,0.6,1.8,0.7,2.7C603.9,417.9,608.4,433.4,614.5,448.1z M544.5,311.9c4,8.1,12.7,14.3,21.9,13.9c13.3,0,24-8.8,23.4-22.7
		c-0.6-11.5-10.8-23-22.5-23.6C549.5,278.8,536.6,295.2,544.5,311.9z M495.3,323.3c3.9,1.7,6.1,3.2,9.9,0.1c1.1-1.1,1.3-2.8,0.5-4.1
		c-0.9-1.1-2.3-1.8-3.7-2.1c-1.9-0.2-3.2-0.4-5.1-0.3c-1,0.1-2.2,0.3-3,1.1C492.3,319.7,493.4,322.7,495.3,323.3z M450.2,313.8
		c7.5-15.1-2.9-33.4-19.9-33.6c-9.1-0.2-18.9,3.6-23,12.3c-6.4,12.8,1.9,29.5,15.2,33.6C433,328.9,445.3,323.7,450.2,313.8z
		 M536.4,352.9c1.8-1.3,2.9-2.7,2.5-5c-0.5,0.4-0.9,0.8-1.4,1.2c-8.3,9-19.1,3.9-28.1-1c-2.3-1.3-4.3-2.7-6.5-4.2
		c-0.9-0.6-1.8-1.1-3-1.1c-2.1,0.1-3.5,1.7-5.1,2.8c-1.4,1-2.8,2-4.3,2.8c-5.8,3.2-12.8,5.9-19.6,4.6c-3.9-0.8-7.2-3.3-9.7-6.3
		c0.1,1.5,0,3.2,0.7,4.6c0.5,1,1.2,1.8,2.1,2.3c4.8,3.5,11.1,3.9,16.7,2.9c3.8-0.7,7.4-2.1,10.8-3.9c1.7-0.9,3.3-1.9,4.9-2.9
		c1.1-0.7,2-1.5,3.1-1.7c1.7-0.2,3.2,1.5,5.2,2.5c3.2,2,6.6,3.6,10.2,4.9c5.4,2.1,11.4,2.9,16.7,0.3
		C533.3,355,534.9,354,536.4,352.9z"/>
	<path d="M494.2,742.4c15.8,0,28.6-11.1,28.6-24.7S510,693,494.2,693s-28.6,11.1-28.6,24.7S478.4,742.4,494.2,742.4z M473.2,717.7
		c0-9.4,9.4-17.1,21-17.1s21,7.7,21,17.1s-9.4,17.1-21,17.1S473.2,727.1,473.2,717.7z M450.2,313.8c7.5-15.1-2.9-33.4-19.9-33.6
		c-9.1-0.2-18.9,3.6-23,12.3c-6.4,12.8,1.9,29.5,15.2,33.6C433,328.9,445.3,323.7,450.2,313.8z M434.4,304.8
		c-6.1,0.1-9.2-7.1-7.9-12.3c1.5-6.3,9.6-6.6,13.5-2.4C444.8,294.9,441.3,304.7,434.4,304.8z M566.4,325.8c13.3,0,24-8.8,23.4-22.7
		c-0.6-11.5-10.8-23-22.5-23.6c-17.7-0.7-30.6,15.7-22.8,32.4C548.5,320,557.2,326.2,566.4,325.8z M560.2,286.7
		c5.8,0.1,9.3,7.1,7.9,12.2c-1.8,6.1-9.7,6.5-13.6,2.3C549.8,296.4,553.3,286.7,560.2,286.7z M493.9,318.1c0.8-0.8,2-1,3-1.1
		c1.9-0.1,3.2,0,5.1,0.3c1.4,0.3,2.7,0.9,3.7,2.1c0.8,1.3,0.6,3-0.5,4.1c-3.8,3.1-6,1.6-9.9-0.1
		C493.4,322.7,492.3,319.7,493.9,318.1z M536.4,352.9c-1.5,1.1-3.1,2.1-4.8,2.9c-5.4,2.6-11.3,1.8-16.7-0.3c-3.6-1.3-7-2.9-10.2-4.9
		c-1.9-1.1-3.5-2.7-5.2-2.5c-1.1,0.3-2,1-3.1,1.7c-1.6,1.1-3.2,2-4.9,2.9c-3.4,1.8-7,3.2-10.8,3.9c-5.6,1-11.9,0.6-16.7-2.9
		c-0.8-0.6-1.6-1.4-2.1-2.3c-0.8-1.4-0.6-3.1-0.7-4.6c2.6,3,5.8,5.5,9.7,6.3c6.7,1.3,13.7-1.4,19.6-4.6c1.5-0.9,2.9-1.8,4.3-2.8
		c1.6-1.1,3-2.7,5.1-2.8c1.2,0,2.1,0.6,3,1.1c2.2,1.5,4.2,2.9,6.5,4.2c9,4.9,19.8,10,28.1,1c0.5-0.5,0.9-0.8,1.4-1.2
		C539.3,350.1,538.2,351.6,536.4,352.9z M780.4,186.6c-1.4-0.6-2.9-0.4-4.3-0.2c-5.5,0.8-11,1.9-16.4,3.6
		c-37.6,10.7-74.4,24.2-109.8,40.8c-11.4,5.4-23.9,11.3-35.4,16.6l-2.5,1.2c-1.2,0.4-2.4,1.4-3.6,1.1c-1.2-0.5-1.6-2-2.3-3l-2.9-4.8
		c-0.4-0.7-1-1.5-1-2.3c0-0.6,0.8-1.1,1.6-1.5c8.5-3.7,16.9-7.9,24.9-12.6c44-25.9,78.3-55.3,100.6-102.1c0.8-1.7,1.7-3.3,2.5-5
		c0.8-1.8,2.3-4.1,0.8-6c-1.7-1.6-4.1-1.6-6.3-2c-5.7-0.7-11.4-0.1-17,0.7c-7.4,1-14.8,2.8-21.9,4.9c-35.8,11-68.7,31.1-94.6,58.2
		c-7.4,7.6-15.6,16.8-22.7,24.7l-3.7,4.1l-0.9,1c-0.3,0.3-0.6,0.6-0.8,0.7c-0.9,0.6-1.9,0.2-2.8-0.2c-9.6-4.9-19.9-8.7-30.5-10.7
		c-11.1-2.1-22.4-2.6-33.6-2.5c-15,0.1-30.1,1-44.5,5.4c-8.1,2.4-15.9,5.8-23.2,10c-1.4,0.8-3.4,2.1-4.7,2.7
		c-2.7,1.2-3.1-2.1-4.2-4.4c-2.3-5.2-5.3-10-8.5-14.6c-18.7-28-44.2-51-72.5-69c-20.5-13-43.2-22.7-67.1-27.1l-2.8-0.5
		c-1.4-0.2-2.9-0.6-4.4-0.2c-0.6,0.2-1.1,0.7-1.3,1.2c-0.4,1-0.4,2-0.4,2.9c-0.1,7.6,3,14.8,6.8,21.3l2.7,4.9l2.8,4.8l1.4,2.4
		c7.2,11.8,15.4,23.5,24.1,34.3l3.6,4.3l1.8,2.1l1.8,2.1c2.9,3.4,6.3,7,9.4,10.3c4.3,4.4,9.4,9.5,14,13.7c3.9,3.6,8.5,7.6,12.6,11
		c11.4,9.6,23.7,18.2,36.6,25.6c3.2,1.9,6.5,3.7,9.7,5.5c0.6,0.4,1.4,0.8,0.9,1.6c-1.5,2.3-3.2,4.6-4.2,7.2c-4.6,10.3-6,21.8-5.4,33
		c0.2,3.7,0.5,7.4,0.4,11.1c-0.2,16.8-6.1,32.8-9.1,49.2c-2.3,13.4,0.4,26.6,8.6,37.5c3.4,4.5,6.9,8.8,11,12.8
		c1.3,1.2,2.4,2.4,2.1,4.2c-0.5,11.1-2.1,22.2-6.3,32.4c-7.4,17-17.2,32.9-27.8,48.2c-6.3,9.4-10,20.5-10.9,31.8
		c-0.3,3.1-0.4,6.2-0.6,9.2c-2.8-2.1-7.1-5.3-8.9-6.6c-2.5-1.7-5.2-3-8.2-3.7c-0.8-0.2-1.6-0.3-2.5-0.2c-1.7,0.1-3.4,1.4-4.3,2.9
		c-0.2,0.4-0.3,0.6-0.5,0.9c-0.4,0.7-0.9,0.5-1.5,0.3c-1.6-0.8-4-0.6-5.2,0.9c-1.1,1.2-1.3,2.7-2.2,3.8c-0.3,0.5-0.8,0.8-1.3,1
		c-0.8,0.4-1.5,0.9-2.1,1.5c-1.8,2-1.4,4.9-0.7,7.2c1.5,5.7,4,11.2,7.4,16c6.8,9.5,14.3,18.3,22,26.9c3.8,4.2,7.5,8.4,11.4,12.6
		c-8.1,18.7-12.6,39.3-12.6,61c0,84.7,68.7,153.4,153.4,153.4c84.7,0,153.4-68.7,153.4-153.4c0-19.9-3.8-38.9-10.7-56.4
		c12.6-11.4,23.9-24.2,34.5-37.4c3.6-4.6,7-9.4,9.6-14.7c0.7-1.4,1.2-3,1.3-4.7c0.2-4-2.2-7.3-3.8-10.7c0-0.1-0.1-0.2-0.2-0.3
		l-0.2-0.4c-0.2-0.2-0.4-0.5-0.6-0.7c-1.1-1.1-3.1-0.8-4.2-0.6c-0.5,0.1-0.8,0.1-1.2,0c0,0-0.1,0-0.1,0c0,0-0.2-0.1-0.3-0.1
		c-0.6-0.2-1.1-0.2-1.6-0.4c-0.9-0.4-1.8-0.7-2.8-0.7c-3.4-0.1-6,1.5-8.8,2.8c-2.6,1.4-5.1,3-7.5,4.6c-1,0.7-2.1,1.5-3.2,2.3
		c0-0.2,0-0.5,0-0.5c0.9-11.7-1.7-23.7-7.1-34.1c-3.6-7.2-8-13.7-11.8-20.7c-0.2-0.3-0.3-0.6-0.4-0.9c-0.1-0.1-0.1-0.2-0.1-0.3
		c2.1-0.9,4.8-1.5,6.9-2.4c6.2-2.2,12.1-5.1,17.9-8.1c5.9-2.8,5.8-5.3,1.9-9.7c-1.5-1.9-6.8-8.2-8.3-10c-1.4-1.8-3.2-3.6-4.4-5.5
		l-0.1-0.2c-0.1-0.1,0-0.1-0.1-0.2c0,0,0.1,0,0.1-0.1c0.1-0.1,0.2-0.1,0.3-0.2c0.8-0.5,1.8-0.9,2.7-1.3
		c14.5-6.2,29.2-12.9,43.4-19.5c2.5-1.2,17.6-8.1,19.6-9.1c5.3-2.5,2.2-5.3-0.4-7.8c-18-17.7-33.4-37.8-50.7-56.2
		c-0.5-0.5-1-1.1-1.4-1.6c-0.1-0.1-0.2-0.3-0.2-0.3c0,0,0,0,0,0c0,0,0,0,0.1-0.1c0.1-0.1,0.3-0.1,0.4-0.2c0.6-0.2,1.3-0.4,2-0.6
		c31.6-9.5,63.9-18.8,96-26.3c2.8-0.5,5.8-1.9,7.3-4.5c0.8-1.3,1.2-2.7,1.5-4.1c7.3-27.9,12.4-56.4,16.3-85
		c1.2-8.6,2.7-17.1,2.9-25.8C782,189.1,781.8,187.3,780.4,186.6z M379.1,364.5c-3.4-11.3,0.8-26.9,0.8-26.9s20.9-9.6,34.6,7.8
		c13.7,17.5,4.2,39.5-14.5,46.4C400,391.7,382.5,375.7,379.1,364.5z M373.1,599.9c8.2,5.3,20.5,8,27.1-1.1l0.3-0.4
		c0.1-0.1,0.1-0.2,0.2-0.3c0.1-0.1,0.3-0.2,0.4-0.2c0.1,0,0.3,0,0.5,0c0.1,0,0.2,0,0.4,0.1c3.8,1,7.7,1.3,11.6,1.2
		c4.4-0.1,8.8-0.9,13.1-1.8c1-0.2,2.9-0.7,3.7-0.6c0.1,0,0,0,0.1,0.1c0.4,0.8,0.4,1.6,0.5,2.5l0.1,1.1c0.2,2.7,1.7,4.2,4.2,3.7
		c0.2,0,0.4-0.1,0.7-0.2l0.5-0.1l2-0.6l1-0.3c1.9-0.6,4-0.7,5.1,1.4c0.2,0.4,0.5,0.8,0.8,1.2c3.5,3.3,7.2-1.5,9.6-3.8
		c0.2-0.2,0.3-0.2,0.3-0.2c0,0,0.1,0,0.3,0.1c0.9,0.5,2.5,2.1,4,2.9c3.5,1.7,5.3-2.3,6.4-4.9c0.1-0.3,0.2-0.6,0.4-0.8
		c0.1-0.1,0.2-0.3,0.2-0.3c0,0,0,0,0,0c0.1,0,0.3,0.1,0.6,0.3c0.2,0.2,0.5,0.4,0.8,0.6c1.2,1,3,2.3,4.8,1.5c1.5-0.8,2.2-2.2,2.9-3.5
		c0.4-0.7,0.9-1.3,1.6-1.4c0.6-0.2,1.2-0.1,1.9-0.2c1-0.1,1.8-0.1,2.7-0.7c0.6-0.4,1-1,1.2-1.5c0.6-1.8,0.2-3.8,0.6-5.5
		c0.1-0.5,0.3-0.8,0.6-1c0.8-0.5,2.5-0.5,3.5-0.5c3.9,0,11.2-0.1,15.1-0.1c2.5,0,6-0.1,8.5,0.4l1.1,0.1c0,0,0.3,0,0.4,0.1
		c-0.6,1.7-1.3,3.5-0.4,5.3c1.4,2.9,5.8,2.8,7.2,5.5c2.8,5.4,3.9,5.4,9.6,4.3c1.2-0.1,1.8-0.1,2.6,0.8c2,2.8,4.1,3.8,7.1,2.1
		c0.8-0.4,1.2-0.7,1.7-0.9c0.9-0.4,1.4,0.1,2,1c1.7,3.2,4,4.1,7,2.2c0.6-0.4,0.9-0.6,1.5-0.7c0.4-0.1,0.7,0,1.2,0.2
		c3.3,2,6,0.7,7.2-2.2c1-1.9,0.6-4.9,1.1-6.5c0.4-1.8,2-1.2,3.3-0.6c0.5,0.3,1.4,0.7,1.9,1c5.2,2.9,11.3,4.8,17.3,4.3
		c1-0.1,2.4-0.3,3.2,0.3c0.6,0.4,0.8,1.1,1.2,1.7c0.4,0.7,1.1,1.2,1.7,1.6c2.7,1.6,5.9,2.3,9.1,2.2c9-0.7,17.3-5.2,24.4-10.3
		c3.2-2.4,6.3-4.9,9.4-7.5c6.1,16.2,9.5,33.7,9.5,52c0,3.3-0.1,6.5-0.3,9.7c-4.6,5.7-12.6,14-25.3,22.3c-15,9.8-38.9,21.1-74.4,26.6
		c-7.5-16-25.8-27.3-47.1-27.3c-21.4,0-39.7,11.4-47.2,27.4c-35.6-5.3-59.6-16-74.8-25.5c-11.9-7.4-19.8-14.9-24.6-20.3
		c-0.4-4.3-0.6-8.6-0.6-13c0-19.9,3.9-38.8,11.1-56.1C362.7,591.6,367.7,596.1,373.1,599.9z M494.2,790.2
		c-62.3,0-115.6-38.7-137-93.4c19.4,12.4,47.6,24.6,87.4,30.3c5,19.5,25.3,34.1,49.6,34.1c24.3,0,44.7-14.7,49.6-34.2
		c40.5-6,68.8-19,88.2-32.2C611.1,750.4,557.3,790.2,494.2,790.2z M451,717.7c0-19.7,19.4-35.8,43.2-35.8s43.2,16.1,43.2,35.8
		s-19.4,35.8-43.2,35.8S451,737.4,451,717.7z M638,493c6,10.3,7.1,22.6,6.4,34.3c0.2,2.7-1.4,3.4-3.2,4.8c-2.3,1.6-4.5,3.3-6.7,5
		c-3.3,2.6-6.5,5.3-9.4,8.2l-0.7,0.7c-0.8,0.7-2,1.4-1.6,2.7c0.3,0.1,0.6,0.2,1,0.1c0.3-0.1,0.5-0.3,0.7-0.5c0.3-0.4,0.8-0.7,1.2-1
		l2.5-1.9c11.5-9,23-18.5,36-25.2c0.9-0.4,1.9-0.8,2.9-0.9c2.5,0.1,2.7,2.6,1.8,4.5c-0.4,0.9-1.1,1.8-1.6,2.6
		c-2.4,3.4-4.8,6.9-7.6,10c-1.4,1.6-2.8,3.1-4.4,4.5c-1,0.9-2.1,1.7-2.8,2.9c-0.1,0.3,0,0.7,0.2,1c0.2,0.2,0.5,0.4,0.9,0.4
		c0.3-0.1,0.6-0.3,0.8-0.4c1.6-1.4,3.2-2.7,4.7-4.2c2.9-3,5.4-6.5,7.9-9.8c2-2.4,3.7-5.3,4.2-8.5c0.3-1.9,1.8-1.9,3.4-1.7
		c0.6,0,1,0,1.4,0.3c0.4,0.2,0.5,0.7,0.6,1.1c0.2,2.6-0.8,5.1-2.3,7.2c-5.3,7.5-11.3,14.5-17.4,21.2c-0.4,0.5-1.2,0.8-1.4,1.6
		c-0.2,0.9,0.9,1.9,1.7,1.5c7.6-7.4,14.2-15.7,19.9-24.5l0.9-1.3c0.2-0.3,0.3-0.8,0.7-0.8c0.4,0.1,0.6,0.2,0.6,0.7
		c0,0.4,0,1-0.1,1.5c-0.3,2-1.1,3.9-2.1,5.8c-2.9,5.6-7.2,10.2-11.2,15c-10.9,12.7-21.7,25.7-34.5,36.5
		c-6.3,5.4-13.1,10.4-20.5,14.2c-3.7,1.8-7.4,3.8-11.5,4.2c-3.5,0.2-8.8,0.1-10-4c-0.5-1.9,0.3-3.9,0.8-5.8c0.6-2,1.4-3.9,2.2-5.8
		c0.2-0.4,0.5-0.9,0.4-1.5c0-0.3-0.1-0.6-0.3-0.8c-0.5-0.5-1.1-0.7-1.8-0.6c-0.6,0.1-1.1,0.8-1.2,1.3c-1,3-2.7,5.8-3.1,9
		c-0.1,0.5-0.2,1.5-0.6,1.8c-0.4,0.5-1.4,0.7-2.4,0.7c-2,0.1-4.1-0.1-6.1-0.5c-4.2-0.8-7.6-3-11.6-4.6c-0.5-0.2-0.9-0.3-1.2-0.6
		c-0.3-0.2-0.3-0.2-0.2-0.6c0.1-0.3,0.3-0.7,0.6-1.1l1-1.2c3.9-5,7.6-10.2,10.9-15.6c8.7-14.4,16.7-29.3,23-44.9
		c4.3-11.3,8.8-22.8,10.3-34.9c0-0.2,0.1-0.4,0.1-0.7c0-0.3,0.1-0.6,0-1.2c-0.2-1.2-1.8-1.8-2.9-1.1c-0.7,0.5-0.9,1.4-0.9,2.2
		c-0.1,1-0.3,2-0.5,3.1c-3.1,18.6-11.3,35.8-19.4,52.7c-7.7,15.4-16.6,30.3-27.4,43.7c-2,2.4-3.1,5.5-3.1,8.6c0,0.2,0,0.5-0.1,0.7
		c0,0.3-0.1,0.5-0.2,0.6c0,0,0,0,0,0c-0.4-0.1-0.6-0.2-1-0.4l-0.7-0.4c-0.5-0.3-1.1-0.6-1.8-0.7c-0.7-0.1-1.6,0-2.2,0.3
		c-2.7,1.8-2.4,2.2-3.7,0.6c-0.6-1-1.2-1.9-2.2-2.8c-3.7-2.6-6.4,3-8.5,0.7c-0.6-0.8-1.4-2-2.5-2.5c-2.3-1.2-4.5-0.1-6.8,0.2
		c-0.4,0-0.8,0-1-0.1c-0.2-0.1-0.4-0.3-0.7-0.6c-0.2-0.3-0.5-0.8-0.7-1.2l-0.7-1.4c-0.5-1.2-1.7-2.1-2.8-2.6
		c-1.4-0.7-3.1-1.1-3.9-2.1c0-0.3,0.2-0.7,0.6-1.2c0.3-0.4,0.6-0.7,0.9-1.1c5.7-6.2,2.5-14.9,1.2-22.1c-7.3-35,1.6-75.7,12.8-109.2
		c0.3-0.7,0.1-1.9-0.4-2.5l-1-1.5c-2.9,4.5-4.4,9.8-6.2,14.6c-10.9,31.9-16.4,72-8.6,105c0.8,2.9,1,5.8,0.8,8.8
		c-0.1,0.6-0.3,1.1-0.6,1.3c-0.3,0.2-0.9,0.2-1.6,0.1c-1.5-0.2-3.1-0.4-4.6-0.5c-8.5-0.8-17.1-0.7-25.5,0.7
		c-0.4,0.1-0.6,0.1-0.9,0.1c-0.3,0-0.3-0.1-0.3-0.1c0-0.1-0.1-0.3-0.1-0.6c0-0.3,0-0.6,0.1-1l0.3-2.3c1-7.1,2.4-15.7,3.4-22.8
		c1.2-9.2,1.3-18.5,1-27.8c-0.5-12.3-1.7-24.6-3.6-36.8c-1.8-11-4-22.1-8.4-32.5c-0.4-0.8-0.4-1.5-1.1-2.3c-0.4-0.4-0.9-0.7-1.4-0.7
		l-0.9-0.2l0,0.9c0.1,2.1,0.8,4.1,1.4,6c1.6,5.8,3.1,11.6,4.3,17.5c4.8,23.5,7,47.7,5,71.6c-0.6,8-1.8,15.9-3.1,23.8
		c-0.8,4.9-1.2,10.1-0.4,15.1c0,0.4,0,0.8-0.2,1.1c-0.3,0.4-1.1,0.4-1.6,0.2c-1.9-0.5-4.1,0.4-5,2.1c-1,2-1.5,3.2-3.7,1.4
		c-2.2-1.9-4-1.8-5.6,0.8c-0.8,1.3-1.3,2.6-2.3,3.8c-0.3,0.3-0.5,0.4-0.9,0.2c-0.4-0.1-0.8-0.4-1.1-0.7c-1.3-0.9-2.2-2.3-4.1-2.3
		c-1.2,0.1-2,1-2.8,1.8c-1,1-2,2.1-3.2,2.9c-0.8,0.5-1.5-0.1-2.1-0.6c-2-2.3-3.8-3.4-7-2.5c0,0-3.8,0.8-5.1,1
		c0.3-0.8,0.5-1.7,0.6-2.5c0.4-3.7-2.5-6.5-5.2-8.5c-3.6-2.6-6.5-5.9-9.2-9.4c-14.4-19.5-27.2-41-31.7-65.1
		c-0.3-1.3-0.7-3.6-1.1-4.9c-0.3-0.8-0.9-1.5-1.4-2.2c-0.4,1.9-0.7,3.9-0.6,5.9c0.3,5,1.8,9.9,3.2,14.7c2,6.4,4.4,12.6,7.3,18.6
		c6.6,13.4,14.5,26.3,24.2,37.7c2.2,2.5,4.5,5,7.1,7.1c0.6,0.6,1.6,1,2,1.7c-0.2,0.2-0.8,0.4-1.3,0.4c-8.1,1.8-16.4,3-24.5,1.6
		c-0.8-0.1-1.6-0.3-2.1-0.8c-1.2-1.1-0.4-2.8-0.4-4.3c0.1-2.5-0.5-5.1-1.1-7.5l-0.3-1.2c-0.1-0.5-0.2-1-0.7-1.4
		c-0.3-0.2-0.7-0.2-1-0.2c-0.2,0.1-0.6,0.1-0.8,0.4c-0.3,0.3-0.3,0.7-0.3,0.9c0.3,1.8,0.6,3.7,0.9,5.6c0.3,1.6,0.5,3.2,0.2,4.8
		c-0.4,3.2-2.6,5.9-5.1,7.9c-0.6,0.5-1.3,0.8-2,0.9c-4,0.4-8.2-0.2-12-1.6c-3.1-1.2-5.8-3-8.2-5.2c-7.6-6.5-14.4-13.7-21.1-21
		c-8.9-9.8-17.8-19.7-25.7-30.4c-1.9-2.6-3.9-5.4-5.6-8.2c-1.7-3.2-2.5-6.9-2.6-10.5l0-0.6c0-0.2,0-0.5,0-0.6c0-0.4,0-0.8,0.1-0.9
		c0.1-0.2,0.3-0.2,0.6-0.2c0.1,0,0.2,0,0.2,0c0,0,0.1,0.1,0.1,0.2c1,4.4,3.6,8.6,6.2,12.3c2.8,4,6.4,7.9,9.7,11.5l0.4,0.5
		c0.2,0.2,0.3,0.4,0.6,0.5c0.3,0.2,0.9,0.2,1.2,0c0.3-0.2,0.5-0.3,0.7-0.6c0.7-1-0.5-2.1-1.1-2.8c-1.9-2.7-4.4-5-6.5-7.6
		c-3.5-4.4-6.5-9.5-8.3-14.8c-0.2-0.8,0-1.6,0-2.4c0-0.8,0-1.6,0.4-1.9c1.6-1.5,4.1-0.4,4.9,1.6c2.2,6.3,5.8,12.1,10,17.3
		c2.4,2.9,5,5.6,7.6,8.3c0.3,0.2,0.7,1,1.2,1.3c0.2,0.1,0.5,0.2,0.7,0.1c0.5-0.1,0.8-0.4,1-0.6c0.2-0.3,0.4-0.8,0.3-1.2
		c-0.1-0.4-0.2-0.7-0.4-0.9c-3.3-3.7-6.5-7.6-9.3-11.7c-2.8-4-5.7-8.1-7.7-12.5c-0.8-2-0.6-4.6,1.3-5.5c2.2-0.8,4.2,0.8,6.2,1.8
		c9.9,5.9,18.7,13.7,27.1,21.5c1,0.9,1.7,1.6,2.7,2.6c0.4,0.5,1.4,0.9,2.1,0.5c0.5-0.3,1-0.7,1.1-1.3c0.3-1.5-1.2-2.1-2-2.9
		c-4.1-3.6-7.7-7.6-12-10.9l-1-0.8c-0.5-0.4-0.9-0.9-0.9-1.4c0-0.1,0-0.3,0-0.4l0.1-0.6c0.9-11.4,2.3-23.1,7.4-33.5
		c2.9-5.8,7.1-11,10.6-16.7c10.5-16.8,21.8-34.1,25.8-53.9c1.3-5.8,1.7-11.8,2-17.8c13.3,10.8,28.1,19.6,43.7,26.6l1.1-2
		c-14.5-9-29.8-17.1-42.3-28.8c8.2-2.2,15.1-7.7,19.2-15.2c3.8-6.4,4.9-14.4,2.9-21.6c-1.6-6-5-11.5-9.1-16.2
		c-7.8-8.7-20.1-13.1-31.2-8c-1.3,0.5-2.5,1.1-3.8,1.7c0.7-3.9,1.4-7.8,2.3-11.5c0.5-2,1.3-5.1,1.7-7c3.2-14.2,3.5-28.9,2.3-43.3
		c-0.4-11.5,4.9-23.3,11.5-32.5c2.1-2.8,4.5-5.4,7.1-7.8c1-0.9,2.1-1.9,2.6-3.3l0.4-1c-1-0.8-2-1.6-3.5-0.9
		c-0.3,0.2-0.5,0.3-0.6,0.5c-0.3,0.3-0.3,0.3-0.6,0.5l-0.7,0.6c-2.3,2-4.7,4-6.5,6.4c-0.5,0.6-1.2,1.6-1.9,1.8
		c-1.3,0.3-2.7-0.9-3.9-1.6c-2-1.2-4.1-2.4-6.1-3.7c-20.1-12.5-38.8-27.2-55.8-43.6l-2.6-2.5c-0.9-0.8-1.6-1.6-2.1-2.4
		c-6.5-20.1-13.9-40.2-15.4-61.4c-0.3-3.8-0.4-8.1-0.4-11.7c12.7,5.4,24.8,12.2,36.2,19.9c30.2,20.5,56.1,47.8,74.2,79.6
		c1.1,1.7,2.1,4.6,4.5,4.6c2.3-0.2,3.7-1.4,5.6-2.2c2.1-1.1,4.2-2.2,6.3-3.2c8.4-4.1,17.2-7.7,26.4-9.6c13.8-2.8,28.1-3.8,42.2-3.4
		c9.4,0.3,18.9,0.9,28.1,2.6c10.5,1.8,20.2,6.1,29.7,11c0.6,0.2,1.4,0.5,2.3,0.4c1.7-0.1,2.8-1.2,3.8-2.2c1.1-1.2,2.5-2.7,3.6-4
		c7.2-7.9,14.4-15.7,22.3-22.8c6.2-5.5,13.3-9.7,20-14.7c10.9-8.1,23-18,35-24.1c10.9-5.8,22.7-10.2,34.2-14.9c0,0,0.5-0.2,0.7-0.3
		c-1.7,19.3-5.7,38.5-12.2,56.8c-0.7,2.3-1.2,4.5-2.3,6.6c-3.2,6.3-9.5,10-15,14.2c-11.5,8.3-23.4,16.1-35.9,22.9
		c-4.2,2.3-8.4,4.5-12.6,6.5c-1.7,0.7-4.3,2.4-6,1.9c-0.7-0.3-1.4-1.3-2-2.2c-0.4-0.6-0.8-1.5-1.5-2c-0.2-0.1-0.5-0.3-0.8-0.3
		c-0.4-0.1-0.7,0.1-1,0.2c-0.5,0.3-0.9,0.8-0.9,1.4c0,0.4,0.1,0.6,0.2,0.8c0.2,0.4,0.4,0.7,0.7,0.9c0.2,0.2,0.4,0.4,0.5,0.6
		c0,0,0.1,0.2,0.2,0.3l0.2,0.4c4.3,6.8,9.9,13.6,12.4,21.3c4.5,13.5,4.2,28,4.2,42.1c0,4.4-0.2,9.9,0.6,14.3
		c0.8,4.8,2.3,9.3,3.7,13.8c1.5,4.2,2.4,8.6,2.9,13c-0.1-0.1-0.3-0.2-0.5-0.4c-3.5-2.2-7.5-3.8-11.7-4.1c-6.3-0.6-12.2,2.5-17.4,5.7
		c-2.7,1.8-5.3,3.8-7.5,6.1c-11.2,11.3-15,34.1,0.8,43.1c4.6,2.7,10.1,3.5,15.4,2.9c1.2-0.1,2.3-0.3,3.5-0.6c0.4-0.1,0.7-0.2,1-0.1
		c-3.2,4.4-6.9,8.4-11,12c-12.6,11.3-28.4,18.1-44,24.3l0.2,0.5c15.2-4.1,30.1-10.3,42.7-20c4.1-3.2,7.9-6.7,11.4-10.5
		c0.4,0.9,0.6,1.8,0.7,2.7c1.5,15.8,6,31.3,12.1,45.9C620.9,463.7,629.6,478.3,638,493z M607.6,416.3c-0.2-0.4-0.4-1.6-0.5-2.1
		c-0.3-1.6-0.5-3.3-0.7-5c-0.4-2.8-0.9-7.2-1.2-10l-0.1-1.2c0-1,0.5-1.7,1.1-2.6c2.5-3.4,4.9-7,7.2-10.5c0.9-1,1.6-3.7,3.3-2.7
		c6.2,3.6,11.8,8.2,17.7,12.2c1.1,0.8,3.1,2.1,4.7,3.1c-2.3,1.6-4.7,3.3-7,4.9c-7,4.8-14.6,8.6-22,12.8c-0.6,0.3-1.5,0.9-2.1,1.2
		c-0.3,0.1-0.5,0.1-0.5,0.1c0,0,0,0,0,0C607.7,416.5,607.7,416.4,607.6,416.3z M604,390.4c0,0-28,5.1-28-20.9
		c0-18.5,26.4-37.8,43.4-25.9C619.3,343.5,627.8,369.6,604,390.4z M643.1,439.4c2,1.6,11.7,14.4,11.7,14.4c-11.6,8.4-28,13-28,13
		c-3.8-5.1-8.1-16.1-8.1-16.1c-1-3.4,6.1-2.9,6.1-2.9s-5-7.9-3-9.1c2-1.2,7.9,8.8,10.3,8.2c2.4-0.6-3.5-11.4-2.2-11.7
		c1.4-0.3,10.1,7.1,11.8,7.3C643.3,442.7,641,437.8,643.1,439.4z M779.3,191.7c-2.1,15.3-4.9,37.4-7.3,52.5
		c-2.1,12.5-5.6,26.4-8.5,38.8c-0.7,3.2-2.4,9.7-3.1,12.9l-0.8,3.2l-0.4,1.6c-0.1,0.5-0.2,1-0.4,1.5c-0.7,1.9-2.2,3.2-4.1,3.7
		l-6.4,1.5c-31.2,7.3-62.1,15.9-92.8,25.2c-2.4,0.8-6.5,2-4.7,5.4c1.9,3,4.6,5,6.8,7.5c15.1,16.1,28.5,33.8,44.4,49.2
		c0.7,0.7,2.9,2.8,3.5,3.5c0.4,0.4,0.7,0.8,0.8,1.1c0,0.2,0.1,0.2-0.1,0.3c-0.5,0.5-1.3,0.8-2,1.1c-13.5,6.2-37.8,17.1-51.3,23.2
		l-6,2.7c-2.1,0.9-3.9,2.2-5.9,3.1c-1,0.4-2,0.7-3.1,0.7c-0.3,0-0.7,0.1-1.1,0.4c-0.3,0.3-0.4,0.8-0.4,1.2c0.4,1.8,1.9,2.9,2.9,4.3
		c0.6,0.8,1.3,1.6,1,2.5c-0.1,0.3-0.4,0.7-0.7,0.8c-0.4,0.1-1.2-0.9-1.7-1.1c-1.4-0.9-6.1-4.2-7.5-5.1c-1-0.8-2.5-1.6-3.7-0.5
		c-0.6,0.4-0.9,1.4-0.8,2c0.1,0.7,0.4,1.2,0.5,1.7c0,0,0.9,2.6,1.6,4.4c-1.2-0.8-2.5-1.6-2.5-1.6l-2.1-1.3c-0.8-0.5-1.9-1.3-2.9-0.8
		c-0.6,0.3-1,0.7-1.2,1.4c-0.2,0.7,0,1.3,0.2,1.7l1.1,2.2c0,0,1.1,2.1,1.7,3.3c-0.7,0.1-1.5,0.1-2.3,0.3c-1.1,0.2-2.3,0.8-3.1,1.7
		c0,0-0.1-0.1-0.1-0.2c0-0.1-0.1-0.2-0.1-0.3l-0.1-0.4c-3.1-8-5.9-16.1-8-24.4c-0.2-0.8-0.4-1.3,0.5-1.8c-0.1,0,12.6-7.5,12.8-7.6
		c3.8-2.3,13.5-8,17.2-10.2c1.5-1,3.9-2,5.2-3.5c2.3-3.1-2.6-5.3-4.6-7c-5.3-3.7-11.5-7.2-17.2-10.4l-2.9-1.6c-1.6-0.9-1.6-1-1-2.2
		c11-18.3,5.2-38.5-0.4-57.5c-1.1-4.2-2.6-8.3-2.7-12.7c-0.1-3.1,0.2-6.7,0.2-9.9c0.1-5.6,0.1-11.2-0.2-16.8
		c-0.5-7.8-1.7-15.7-4.1-23.2c-0.4-1.4-1-2.8-0.8-4.1c0.1-0.4,0.7-0.8,1.1-1c1.5-0.9,6.5-3.1,8.1-3.9
		c48.2-22.5,96.8-45.4,148.6-58.3c2.2-0.5,4.3-1,6.5-1.5c1-0.2,2.2-0.5,3.2-0.3c0.5,0.1,0.7,0.6,0.8,1.2
		C779.4,190.6,779.3,191.1,779.3,191.7z"/>
	<path class="st2" d="M347,643c0-19.9,3.9-38.8,11.1-56.1c4.6,4.7,9.6,9.1,15,12.9c8.2,5.3,20.5,8,27.1-1.1l0.3-0.4
		c0.1-0.1,0.1-0.2,0.2-0.3c0.1-0.1,0.3-0.2,0.4-0.2c0.1,0,0.3,0,0.5,0c0.1,0,0.2,0,0.4,0.1c3.8,1,7.7,1.3,11.6,1.2
		c4.4-0.1,8.8-0.9,13.1-1.8c1-0.2,2.9-0.7,3.7-0.6c0.1,0,0,0,0.1,0.1c0.4,0.8,0.4,1.6,0.5,2.5l0.1,1.1c0.2,2.7,1.7,4.2,4.2,3.7
		c0.2,0,0.4-0.1,0.7-0.2l0.5-0.1l2-0.6l1-0.3c1.9-0.6,4-0.7,5.1,1.4c0.2,0.4,0.5,0.8,0.8,1.2c3.5,3.3,7.2-1.5,9.6-3.8
		c0.2-0.2,0.3-0.2,0.3-0.2c0,0,0.1,0,0.3,0.1c0.9,0.5,2.5,2.1,4,2.9c3.5,1.7,5.3-2.3,6.4-4.9c0.1-0.3,0.2-0.6,0.4-0.8
		c0.1-0.1,0.2-0.3,0.2-0.3c0,0,0,0,0,0c0.1,0,0.3,0.1,0.6,0.3c0.2,0.2,0.5,0.4,0.8,0.6c1.2,1,3,2.3,4.8,1.5c1.5-0.8,2.2-2.2,2.9-3.5
		c0.4-0.7,0.9-1.3,1.6-1.4c0.6-0.2,1.2-0.1,1.9-0.2c1-0.1,1.8-0.1,2.7-0.7c0.6-0.4,1-1,1.2-1.5c0.6-1.8,0.2-3.8,0.6-5.5
		c0.1-0.5,0.3-0.8,0.6-1c0.8-0.5,2.5-0.5,3.5-0.5c3.9,0,11.2-0.1,15.1-0.1c2.5,0,6-0.1,8.5,0.4l1.1,0.1c0,0,0.3,0,0.4,0.1
		c-0.6,1.7-1.3,3.5-0.4,5.3c1.4,2.9,5.8,2.8,7.2,5.5c2.8,5.4,3.9,5.4,9.6,4.3c1.2-0.1,1.8-0.1,2.6,0.8c2,2.8,4.1,3.8,7.1,2.1
		c0.8-0.4,1.2-0.7,1.7-0.9c0.9-0.4,1.4,0.1,2,1c1.7,3.2,4,4.1,7,2.2c0.6-0.4,0.9-0.6,1.5-0.7c0.4-0.1,0.7,0,1.2,0.2
		c3.3,2,6,0.7,7.2-2.2c1-1.9,0.6-4.9,1.1-6.5c0.4-1.8,2-1.2,3.3-0.6c0.5,0.3,1.4,0.7,1.9,1c5.2,2.9,11.3,4.8,17.3,4.3
		c1-0.1,2.4-0.3,3.2,0.3c0.6,0.4,0.8,1.1,1.2,1.7c0.4,0.7,1.1,1.2,1.7,1.6c2.7,1.6,5.9,2.3,9.1,2.2c9-0.7,17.3-5.2,24.4-10.3
		c3.2-2.4,6.3-4.9,9.4-7.5c6.1,16.2,9.5,33.7,9.5,52c0,3.3-0.1,6.5-0.3,9.7c-4.6,5.7-12.6,14-25.3,22.3c-15,9.8-38.9,21.1-74.4,26.6
		c-7.5-16-25.8-27.3-47.1-27.3c-21.4,0-39.7,11.4-47.2,27.4c-35.6-5.3-59.6-16-74.8-25.5c-11.9-7.4-19.8-14.9-24.6-20.3
		C347.2,651.7,347,647.4,347,643z M400,391.7c18.7-6.9,28.1-28.9,14.5-46.4c-13.7-17.5-34.6-7.8-34.6-7.8s-4.2,15.7-0.8,26.9
		C382.5,375.7,400,391.7,400,391.7z M619.3,343.5c-17-11.9-43.4,7.4-43.4,25.9c0,26.1,28,20.9,28,20.9
		C627.8,369.6,619.3,343.5,619.3,343.5z"/>
	<path class="st3" d="M629.9,435.2c-1.4,0.3,4.6,11.1,2.2,11.7c-2.4,0.6-8.3-9.4-10.3-8.2c-2,1.2,3,9.1,3,9.1s-7.1-0.5-6.1,2.9
		c0,0,4.4,11,8.1,16.1c0,0,16.4-4.5,28-13c0,0-9.6-12.8-11.7-14.4c-2-1.6,0.2,3.3-1.4,3.1C640,442.3,631.3,434.9,629.9,435.2z"/>
</g>
</svg>
